<svg xmlns="http://www.w3.org/2000/svg" xml:space="preserve" width="87.440002mm" height="123.78468mm" viewBox="0 0 87.440002 123.78468"><g style="display:inline"><path d="m127.3 180.35 14.827.795-.608 4.91-5.753-.046-.14 2.245 5.285.047-.702 4.958-5.238-.047-.795 7.11-9.495.467zM151.133 186.19q-.175 0-.354.007c-4.327.14-7.108 2.057-8.559 5.098-.47 1.193-.96 2.59-.443 4.215.725 2.274 2.441 3.61 5.027 4.297 2.23.536 4.064.377 5.8.047l3.835-.936.625-4.837c-1.418.355-2.593 1.017-5.01 1.107-3.978.15-4.388-1.034-4.43-1.977l9.72.258c.115.003.418-.19.466-.296.332-.734.38-1.544.434-2.27.059-.79-.396-2.535-2.374-3.587-1.303-.673-2.976-1.122-4.737-1.125zm.177 3.825q.111 0 .218.005c1.637.199 2.014 1.293 1.965 1.298-1.7.423-3.43.368-5.2.326-.196-.005-.217-.234-.121-.361.638-.84 2.03-1.266 3.138-1.268zM167.986 186.418c-2.468-.01-4.769.306-6.823 1.041l-.795 4.865s2.608-1.186 5.379-1.17c2.109.012 3.7.485 3.7.485.07.138.133.174-.099.386-1.146-.03-1.81-.14-3.835-.029-2.752.178-7.361.895-7.297 4.537.024 1.363.318 2.903 4.444 3.18 2.439.164 4.806-.712 7.11-3.788l-1.03 3.648h6.455l.842-7.998c.263-2.5-2.435-4.822-5.94-5.075a31 31 0 0 0-2.111-.082m-.06 7.419q.488-.003.971.034c-.487 1.438-1.442 2.253-2.844 2.356-.725.054-1.628-.16-1.629-.843 0-1.01 1.402-1.398 2.233-1.48q.64-.064 1.268-.067M178.726 187.038l7.063-.047-.632 2.292c1.487-1.83 3.084-3.082 5.005-2.62l-.749 6.362c-.525-.321-1.059-.54-2.245-.561-2.023.448-2.488 2.462-2.71 4.268-.171 1.387-.327 2.542-.325 3.017l-7.16-.176z" style="fill:#f8e52f;fill-opacity:1;stroke-width:.25" transform="translate(-124.68 -77.026)"/><path d="m189.237 181.37 8.301-.298 1.72 4.332 2.348-4.663 8.737-.387-3.941 5.249c-1.83 2.15-3.565 4.302-5.51 6.28 0 0 1.014-.345 1.79-.333.662.01 1.177.426 1.177.426l4.928 8.834-8.007-.325-2.372-5.972-3.11 5.651-9.028-.231 8.49-10.23z" style="display:inline;fill:#f8e52f;fill-opacity:1;stroke-width:.25" transform="translate(-124.68 -77.026)"/><g style="display:inline;fill:#d31f28;fill-opacity:1"><path d="M0 0h5.361c.35 0 .636.266.636.596v9.515c0 .331-.286.597-.636.597h-7.53c-8.705 0-13.322-2.617-15.961-8.189l-16.375-37.756c-.997-2.251-2.424-3.323-5.247-3.323v48.671c0 .331-.284.597-.633.597h-12.033c-.35 0-.635-.266-.635-.597v-58.324c0-.58.499-1.053 1.12-1.053h13.492c8.71 0 12.683 2.62 15.321 8.188L-6.957-3.799C-5.66-1.156-3.792 0 0 0" style="fill:#d31f28;fill-opacity:1;fill-rule:nonzero;stroke:none" transform="matrix(.33197 0 0 -.33197 74.379 82.878)"/><path d="M0 0h-20.347v14.063H0c5.48 0 9.188-3.149 9.188-7.034C9.188 3.146 5.48 0 0 0m14.018 19.537c4.828 1.886 8.828 6.132 8.828 13.158 0 10.476-9.552 16.829-21.06 16.829h-35.574c-.35 0-.635-.266-.635-.596v-9.516c0-.33.285-.596.635-.596H-.683c5.343 0 8.956-3.066 8.956-6.854 0-3.784-3.613-6.855-8.956-6.855h-19.664v7.066c0 .328-.286.597-.635.597h-12.806c-.347 0-.635-.269-.635-.597V-9.855c0-.329.285-.594.635-.594H1.269c13.105 0 22.489 5.754 22.489 17.478 0 5.764-3.61 10.532-9.74 12.508" style="fill:#d31f28;fill-opacity:1;fill-rule:nonzero;stroke:none" transform="matrix(.33197 0 0 -.33197 20.906 95.763)"/><path d="m0 0-20.63 24.833c-.061.077-.148.061-.183-.019l-5.553-12.783c-.034-.082-.034-.166.024-.242l9.02-11.373c.636-.797 1.362-1.102 2.437-1.102H-.348C.074-.686.251-.307 0 0" style="fill:#d31f28;fill-opacity:1;fill-rule:nonzero;stroke:none" transform="matrix(.33197 0 0 -.33197 78.514 99.005)"/><path d="M0 0h-12.045c-.351 0-.635-.269-.635-.596v-42.029c0-.328.284-.594.635-.594H0c.35 0 .638.266.638.594V-.596C.638-.269.35 0 0 0" style="fill:#d31f28;fill-opacity:1;fill-rule:nonzero;stroke:none" transform="matrix(.33197 0 0 -.33197 36.293 84.885)"/><path d="M0 0h-12.037c-.347 0-.631-.266-.631-.597v-48.671c-2.825 0-4.254 1.072-5.247 3.323L-34.288-8.189C-36.927-2.617-41.548 0-50.252 0h-11.346c-.35 0-.634-.266-.634-.597v-9.515c0-.33.284-.596.634-.596h9.174c3.796 0 5.664-1.156 6.961-3.799L-29.3-51.786c2.634-5.568 6.613-8.188 15.32-8.188H-.489c.618 0 1.12.473 1.12 1.053V-.597C.631-.266.348 0 0 0" style="fill:#d31f28;fill-opacity:1;fill-rule:nonzero;stroke:none" transform="matrix(.33197 0 0 -.33197 52.743 79.323)"/></g><g style="display:inline;fill:#f8e52f;fill-opacity:1"><path d="M93.48 184.076c-.357 1.377-.103 2.302.474 1.287 1.017-1.788 4.275-5.485 8.734-6.843l3.654-1.112c1.6-.295 2.817-1.138 3.613-2.58 1.167-2.29 2.635-4.957 2.71-9.766.039-2.434-.422-3.374-1.993-2.57-3.95 2.025-6.896 3.902-9.476 6.766-6.594 7.32-6.563 11.203-7.717 14.818z" style="display:inline;fill:#f8e52f;fill-opacity:1;stroke-width:.25" transform="matrix(1.63908 0 0 1.62708 -138.852 -261.306)"/><path d="M135.188 160.598c-1.497 0-4.375 1.142-7.332 2.744-2.581 1.398-5.203 3.158-7.277 4.664-4.332 2.972-7.224 5.632-9.963 8.138-1.349 1.066-1.643 2.172-5.332 2.947-2.742.576-6.015 1.668-7.81 3.585-1.703 1.817-2.396 2.885-3.53 4.805-1.376 2.327-1.872 5.11-2.378 7.036-.256 1.87-.833 3.363-3.213 5.422-1.025.887-1.939 1.862-.515 3.227 1.428 1.37 2.249 2.928 7.25 3.567 2.32.297 5.699-1.46 8.7-2.479 2.063-.855 4.149-1.736 6.64-1.797 3.703-.057 7.172.43 11.326-.36.861-.164 1.447-.758.365-1.41a18 18 0 0 1-3.626-2.871c-.05-.28.185-.432.57-.36.09.017 3.731.22 6.707-.93.73-.282.414-.797.06-1.103l-3.465-1.681c-1.197-.968-1.284-2.42-1.072-2.592 5.246-4.953 6.88-6.019 10.195-10.857 1.85-2.703 5.007-8.37 6.036-13.402.901-4.257.991-5.85-2.336-6.293m-.539 3.049c.363.014.261.411.228.751-.243 2.263-1.164 4.371-1.742 6.523-1.433 3.185-2.82 5.804-4.462 8.32-1.122 1.72-2.46 3.221-4.028 4.763-2.45 2.202-6.89 5.181-6.757 6.546.043.435-.014 1.05.315 1.852l-1.638-.38c-1.924-.448-4.324.161-5.65.759-.723.326-.932.597-.384.752 2.317.862 4.626 2.349 5.059 3.615 0 0-2.944.567-4.333 1.008-2.164.689-5.478 2.918-5.59 2.861.608-.655 1.186-1.339 1.92-1.868 1.674-1.21 2.62-1.984 4.86-2.597.178-.048.514-.085-.032-.562-2.018-1.542-3.354-1.573-4.78-1.802-.23-.063-.346-.351-.181-.546 1.545-1.14 3.279-2.216 7.59-3.225.394-.104.429-.21.53-.314.509-.752.667-1.446 1.537-2.315 1.477-1.474 4.237-3.482 5.953-5.292 3.187-3.36 5.328-8.176 5.904-11.69.081-.497.246-1.597-1.207-.993-5.413 2.229-10.055 5.5-12.833 9.277l-.165-.132 1.158-1.82 1.025-1.389c1.508-2.043 3.693-3.81 5.82-5.457 3.799-2.95 8.356-5.165 11.345-6.515.244-.097.417-.135.538-.13m-31.968 25.102c.7.001.273.929.308 1.486-.736 2.977-2.254 4.21-3.82 4.83-2.226.883-2.654.485-3.902.81-1.45.395-1.53 1.205-1.836 1.405.086-.614.298-1.143.513-1.67.506-1.241 1.31-2.482 3.224-4.035 1.27-1.03 2.688-1.848 4.829-2.662.3-.115.522-.164.684-.164" style="display:inline;fill:#f8e52f;fill-opacity:1;stroke-width:.25" transform="matrix(1.63908 0 0 1.62708 -138.852 -261.306)"/></g></g></svg>